<?xml version="1.0" standalone="no"?>
<!DOCTYPE svg PUBLIC "-//W3C//DTD SVG 20010904//EN"
 "http://www.w3.org/TR/2001/REC-SVG-20010904/DTD/svg10.dtd">
<svg version="1.0" xmlns="http://www.w3.org/2000/svg"
 width="700.000000pt" height="700.000000pt" viewBox="0 0 700.000000 700.000000"
 preserveAspectRatio="xMidYMid meet">
<metadata>
Created by potrace 1.11, written by Peter Selinger 2001-2013
</metadata>
<g transform="translate(0.000000,700.000000) scale(0.100000,-0.100000)"
fill="#000000" stroke="none">
<path d="M3883 6248 c1 -40 -6 -56 -28 -66 -20 -9 -26 -8 -34 5 -8 14 -12 15
-25 4 -14 -11 -16 -11 -16 4 0 10 -5 15 -14 12 -7 -3 -18 -1 -24 5 -8 8 -13 3
-18 -17 -4 -15 -20 -40 -37 -56 -25 -25 -28 -33 -23 -64 4 -22 3 -35 -4 -35
-5 0 -10 -16 -10 -36 0 -39 -37 -85 -50 -64 -4 7 -11 6 -20 -5 -11 -13 -10
-19 9 -38 18 -20 21 -35 21 -100 0 -62 3 -77 15 -77 12 0 15 -15 15 -74 0
-103 -2 -106 -66 -106 -47 0 -54 -2 -54 -20 0 -17 7 -20 39 -20 l40 0 1 -210
c1 -205 0 -210 -20 -210 -18 0 -20 -6 -20 -80 0 -73 2 -80 20 -80 17 0 20 -7
20 -40 l0 -40 40 0 40 0 0 -40 0 -40 40 0 c33 0 40 -3 40 -20 0 -17 7 -20 40
-20 33 0 40 -3 40 -20 0 -16 7 -20 37 -20 42 0 38 -9 -9 -20 -33 -8 -33 -8 10
-9 32 -1 42 3 42 15 0 14 2 14 15 0 8 -8 15 -19 15 -25 0 -18 17 -13 46 14 15
14 33 25 40 25 8 0 14 8 14 19 0 10 5 32 11 49 9 27 13 30 25 18 17 -17 50
-10 67 14 7 10 31 21 52 25 47 9 80 24 55 25 -28 2 23 19 60 20 37 1 71 23 83
53 4 11 18 18 39 19 62 3 103 7 168 16 41 6 69 6 77 0 6 -5 38 -8 71 -7 65 2
84 -4 75 -26 -3 -10 2 -15 17 -15 12 0 18 -4 15 -10 -8 -13 31 -46 72 -60 17
-6 34 -17 37 -25 7 -19 35 -19 42 0 9 22 44 19 44 -4 0 -11 -4 -23 -10 -26
-15 -10 -12 -32 6 -39 16 -6 39 16 56 54 5 12 7 12 7 -2 1 -23 41 -24 41 -2 0
9 -9 18 -20 21 -16 4 -20 14 -20 48 0 25 -5 45 -12 48 -9 4 -7 6 3 6 9 1 24
10 34 21 19 21 55 27 55 10 0 -5 4 -10 10 -10 5 0 10 30 12 68 2 48 7 66 16
64 7 -1 15 5 18 13 8 19 24 19 24 0 0 -8 5 -15 10 -15 6 0 10 7 10 15 0 10 10
15 33 15 24 0 28 3 17 10 -13 8 -12 10 3 10 26 0 51 -26 35 -36 -8 -5 -6 -10
8 -15 32 -13 44 -10 44 11 0 11 4 20 10 20 5 0 7 6 4 14 -6 16 12 57 30 68 7
5 5 16 -7 37 -9 16 -17 46 -17 68 0 28 -3 34 -10 23 -8 -12 -10 -9 -10 13 0
19 -7 31 -25 39 -14 6 -25 18 -25 25 0 8 5 11 11 8 6 -4 5 2 -2 13 -10 16 -16
18 -26 10 -11 -8 -12 -7 -6 7 5 14 3 17 -10 12 -9 -3 -17 -2 -17 3 0 6 -4 10
-10 10 -5 0 -10 -7 -10 -15 0 -12 -3 -12 -18 3 -20 20 -24 52 -5 52 20 0 23
16 3 17 -10 1 -31 14 -48 30 -47 44 -68 60 -91 68 -12 4 -34 19 -49 33 -28 28
-35 32 -52 32 -14 0 -111 102 -121 128 -5 12 -13 22 -19 22 -18 0 -11 -28 12
-50 18 -16 19 -20 5 -20 -8 0 -18 4 -22 10 -3 5 -12 7 -20 3 -8 -3 -15 -1 -15
5 0 6 4 12 9 14 5 2 3 12 -5 22 -12 17 -14 18 -14 3 0 -9 -4 -17 -10 -17 -5 0
-10 7 -10 15 0 8 -6 15 -14 15 -8 0 -17 12 -21 27 -4 19 -9 23 -14 14 -6 -10
-10 -9 -14 3 -4 9 -1 16 6 16 8 0 7 4 -3 10 -13 9 -13 11 0 20 12 8 11 10 -7
10 -13 0 -23 -4 -23 -9 0 -5 -9 -7 -20 -4 -11 3 -20 0 -20 -6 0 -6 -10 -11
-22 -11 -21 0 -20 2 7 16 44 22 44 27 3 20 -75 -14 -87 -3 -102 89 -2 16 -10
20 -39 18 -31 -2 -37 0 -37 17 0 10 -11 32 -25 47 -14 15 -29 34 -35 41 -7 7
-21 10 -35 6 -14 -3 -25 -2 -25 4 0 5 -13 24 -28 42 -27 30 -31 32 -89 28 -34
-1 -60 -1 -58 2 2 4 -5 11 -15 18 -14 9 -19 8 -24 -4 -3 -8 -13 -14 -22 -12
-12 2 -21 -9 -30 -37 -8 -22 -16 -46 -19 -53 -7 -19 -45 8 -45 31 0 14 -5 17
-20 12 -11 -3 -30 1 -45 11 -15 10 -43 20 -63 24 -23 4 -36 11 -34 19 1 7 -2
19 -8 25 -5 7 -7 16 -3 19 3 4 -1 7 -9 7 -9 0 -16 -6 -15 -12z m-258 -1258
c-3 -5 -10 -10 -16 -10 -5 0 -9 5 -9 10 0 6 7 10 16 10 8 0 12 -4 9 -10z
m1565 -20 c0 -5 -4 -10 -10 -10 -5 0 -10 5 -10 10 0 6 5 10 10 10 6 0 10 -4
10 -10z m-233 -136 c-3 -3 -12 -4 -19 -1 -8 3 -5 6 6 6 11 1 17 -2 13 -5z m48
-14 c3 -5 1 -10 -4 -10 -6 0 -11 5 -11 10 0 6 2 10 4 10 3 0 8 -4 11 -10z
m-1025 -150 c0 -5 -4 -10 -10 -10 -5 0 -10 5 -10 10 0 6 5 10 10 10 6 0 10 -4
10 -10z"/>
<path d="M3090 6110 c0 -5 -11 -10 -25 -10 -30 0 -32 -19 -5 -43 16 -13 39
-17 109 -17 l89 0 -2 33 c-2 29 -4 32 -29 29 -15 -2 -27 1 -27 7 0 7 -23 11
-55 11 -30 0 -55 -4 -55 -10z m140 -50 c0 -5 -4 -10 -10 -10 -5 0 -10 5 -10
10 0 6 5 10 10 10 6 0 10 -4 10 -10z"/>
<path d="M4665 5930 c-3 -5 1 -10 9 -10 9 0 16 5 16 10 0 6 -4 10 -9 10 -6 0
-13 -4 -16 -10z"/>
<path d="M4830 5820 c0 -5 12 -10 28 -10 21 0 24 2 12 10 -20 13 -40 13 -40 0z"/>
<path d="M3032 5700 c0 -14 2 -19 5 -12 2 6 2 18 0 25 -3 6 -5 1 -5 -13z"/>
<path d="M3056 5708 c19 -33 26 -38 45 -27 16 8 19 6 19 -16 0 -14 5 -25 10
-25 6 0 10 -18 10 -40 0 -38 2 -40 30 -40 l30 0 0 80 0 80 -76 0 c-57 0 -73
-3 -68 -12z"/>
<path d="M2745 5641 c-33 -3 -66 -10 -73 -14 -7 -5 -29 -3 -48 3 -30 10 -38
10 -45 -1 -5 -8 -7 -20 -4 -26 8 -23 -7 -43 -31 -43 -17 0 -24 -6 -24 -20 0
-11 5 -20 10 -20 6 0 10 -4 10 -10 0 -5 -13 -10 -30 -10 -16 0 -30 -4 -30 -10
0 -5 18 -10 40 -10 40 0 40 0 40 -38 0 -36 -3 -40 -40 -52 -50 -16 -53 -41 -7
-58 43 -16 47 -15 47 4 0 13 3 14 14 4 12 -9 16 -5 22 24 3 21 12 36 20 36 11
0 14 -17 14 -69 0 -38 3 -83 6 -100 l7 -31 158 0 c99 0 159 4 159 10 0 6 18
10 40 10 22 0 40 5 40 10 0 6 9 10 20 10 19 0 20 7 20 160 0 153 1 160 20 160
11 0 20 7 20 15 0 8 -4 15 -9 15 -5 0 -11 10 -13 23 -2 12 -10 22 -18 22 -8 0
-16 -10 -18 -22 -4 -28 -5 -28 -37 1 -14 13 -39 26 -56 30 -36 7 -137 6 -224
-3z m-188 -133 c-3 -8 -6 -5 -6 6 -1 11 2 17 5 13 3 -3 4 -12 1 -19z"/>
<path d="M2400 5400 l0 -160 26 0 c25 0 26 -2 22 -50 -3 -44 -1 -50 16 -50 17
0 18 6 13 50 -6 48 -5 50 18 50 22 0 25 -4 25 -40 0 -33 3 -40 20 -40 18 0 20
7 20 70 l0 70 -40 0 c-22 0 -40 5 -40 10 0 6 -9 10 -20 10 -19 0 -20 7 -20
120 0 113 -1 120 -20 120 -19 0 -20 -7 -20 -160z"/>
<path d="M3200 5260 c0 -13 -7 -20 -19 -20 -10 0 -24 -6 -30 -14 -9 -11 -7
-15 11 -20 42 -11 143 -5 173 10 17 8 22 12 13 10 -10 -3 -20 -1 -23 4 -4 6
-15 10 -26 10 -12 0 -19 7 -19 20 0 17 -7 20 -40 20 -33 0 -40 -3 -40 -20z"/>
<path d="M2700 5170 c0 -5 -9 -10 -19 -10 -11 0 -22 -6 -24 -12 -4 -10 -8 -9
-16 2 -7 10 -11 11 -11 3 0 -7 -7 -13 -15 -13 -8 0 -19 -9 -25 -20 -13 -24 -2
-26 28 -4 21 15 25 15 41 0 10 -9 25 -16 35 -16 9 0 19 -7 22 -15 4 -8 18 -15
33 -15 l26 1 -27 17 c-26 15 -34 39 -29 80 1 6 -3 12 -9 12 -5 0 -10 -4 -10
-10z m0 -40 c12 -8 11 -10 -7 -10 -13 0 -23 5 -23 10 0 13 11 13 30 0z"/>
<path d="M2578 5153 c7 -3 16 -2 19 1 4 3 -2 6 -13 5 -11 0 -14 -3 -6 -6z"/>
<path d="M2800 5150 c0 -5 7 -10 15 -10 8 0 15 5 15 10 0 6 -7 10 -15 10 -8 0
-15 -4 -15 -10z"/>
<path d="M1760 5101 c0 -18 -6 -21 -40 -21 -34 0 -40 -3 -40 -20 0 -17 -3 -19
-18 -11 -22 12 -63 -19 -60 -46 4 -46 -2 -72 -16 -67 -22 9 -27 -11 -5 -24 11
-7 19 -8 19 -2 0 5 18 10 40 10 l40 0 0 -80 0 -80 33 -1 c17 -1 44 -2 59 -3
15 -1 25 1 22 5 -2 4 7 16 21 27 14 11 25 27 25 36 0 9 9 25 20 36 l20 20 -22
0 c-19 0 -20 2 -8 10 8 5 27 10 43 10 15 0 27 5 27 10 0 6 6 10 13 10 8 0 24
11 36 24 25 27 25 26 -26 82 -13 14 -23 34 -23 44 0 26 -28 39 -100 47 -57 5
-60 5 -60 -16z"/>
<path d="M2288 5113 c7 -3 16 -2 19 1 4 3 -2 6 -13 5 -11 0 -14 -3 -6 -6z"/>
<path d="M2385 5110 c3 -5 8 -10 11 -10 2 0 4 5 4 10 0 6 -5 10 -11 10 -5 0
-7 -4 -4 -10z"/>
<path d="M2418 5113 c6 -2 18 -2 25 0 6 3 1 5 -13 5 -14 0 -19 -2 -12 -5z"/>
<path d="M2493 5113 c9 -2 25 -2 35 0 9 3 1 5 -18 5 -19 0 -27 -2 -17 -5z"/>
<path d="M5477 5101 c-3 -14 0 -21 9 -21 16 0 18 9 5 28 -6 10 -10 9 -14 -7z"/>
<path d="M2225 5080 c-19 -8 -19 -9 3 -9 12 -1 22 4 22 9 0 6 -1 10 -2 9 -2 0
-12 -4 -23 -9z"/>
<path d="M5550 5060 c0 -5 5 -10 10 -10 6 0 10 5 10 10 0 6 -4 10 -10 10 -5 0
-10 -4 -10 -10z"/>
<path d="M2080 5039 c0 -5 5 -7 10 -4 6 3 10 8 10 11 0 2 -4 4 -10 4 -5 0 -10
-5 -10 -11z"/>
<path d="M1991 5024 c-18 -21 -1 -36 35 -32 21 2 29 8 29 23 0 25 -44 32 -64
9z"/>
<path d="M5320 4983 c0 -10 3 -29 7 -42 6 -23 7 -23 14 -5 13 33 10 64 -6 64
-8 0 -15 -8 -15 -17z"/>
<path d="M1527 4833 c-4 -3 -7 -21 -7 -40 0 -30 -2 -33 -31 -33 l-32 0 6 -54
c4 -41 2 -58 -9 -67 -8 -6 -14 -18 -14 -25 0 -10 -13 -14 -40 -14 -22 0 -40
-4 -40 -10 0 -5 -18 -10 -40 -10 -38 0 -40 -2 -40 -30 l0 -30 80 0 c70 0 80
-2 80 -18 0 -10 -5 -23 -12 -30 -9 -9 -9 -12 1 -12 7 0 9 -4 6 -10 -3 -5 -40
-10 -81 -10 -67 0 -74 2 -74 20 0 16 7 20 38 20 45 0 72 14 47 24 -33 12 -85
7 -85 -9 0 -11 -11 -15 -40 -15 -22 0 -40 -3 -40 -7 0 -9 -49 -33 -67 -33 -10
0 -13 -27 -13 -115 l0 -115 80 0 80 0 0 95 0 95 80 0 c73 0 80 2 80 20 0 17 7
20 39 20 22 0 42 6 45 13 3 6 4 -16 3 -51 -2 -34 0 -57 5 -50 5 9 8 5 8 -10 0
-15 -4 -21 -11 -16 -16 10 -6 -121 11 -141 18 -21 6 -29 -18 -14 -18 11 -24
10 -41 -5 -22 -20 -28 -46 -11 -46 7 0 10 -20 9 -48 -1 -27 1 -53 4 -59 8 -13
-43 -53 -67 -53 -13 0 -16 -13 -16 -80 0 -73 -2 -80 -20 -80 -19 0 -20 -7 -20
-160 l0 -160 -30 0 c-28 0 -30 -2 -30 -41 0 -24 -4 -38 -10 -34 -6 4 -10 -11
-10 -37 0 -56 -12 -75 -31 -52 -11 14 -11 16 -1 10 11 -7 13 4 9 53 -2 34 -7
61 -10 62 -4 0 -26 -3 -50 -6 -32 -5 -48 -15 -67 -40 -14 -18 -28 -31 -31 -29
-4 2 -4 25 -1 51 5 43 4 47 -11 35 -14 -12 -17 -10 -23 15 -4 15 -7 36 -6 45
0 13 -6 17 -26 17 -46 -2 -62 -10 -62 -28 0 -10 -7 -24 -15 -31 -8 -7 -15 -20
-15 -29 0 -10 -8 -26 -18 -37 -19 -19 -26 -84 -10 -84 4 0 8 -9 8 -20 0 -11
-4 -20 -10 -20 -5 0 -10 -7 -10 -15 0 -23 41 -19 47 5 3 11 9 17 14 14 5 -3 7
-9 4 -14 -5 -8 35 -5 65 6 11 4 11 7 2 12 -8 6 -6 13 9 26 20 17 21 17 14 -3
-4 -13 0 -27 9 -37 18 -18 19 -23 6 -44 -5 -8 -12 -11 -17 -7 -4 5 -1 12 7 17
8 5 11 13 6 17 -5 4 -10 3 -13 -3 -2 -6 -16 -10 -31 -9 -19 2 -20 1 -4 -2 12
-2 22 -10 22 -18 0 -20 26 -66 34 -58 3 3 -1 15 -11 25 -13 15 -13 18 -2 18 8
0 25 -7 37 -16 13 -9 29 -13 37 -11 7 3 20 -2 29 -12 16 -17 15 -19 -14 -24
-16 -4 -30 -11 -30 -17 0 -10 22 -14 95 -15 l40 0 3 -57 c3 -53 1 -58 -18 -58
-18 0 -20 -6 -20 -80 l0 -80 30 0 30 0 0 -70 c0 -56 -3 -70 -15 -70 -8 0 -15
-4 -15 -10 0 -5 -10 -10 -21 -10 -20 0 -21 -4 -15 -40 l6 -40 -41 0 c-33 0
-40 -3 -35 -16 7 -19 -11 -57 -24 -49 -5 3 -11 1 -15 -5 -4 -6 -65 -10 -156
-10 l-149 0 0 -40 0 -40 -65 0 c-60 0 -65 -2 -65 -21 0 -12 -8 -28 -17 -35
-13 -9 -18 -26 -18 -62 0 -28 -3 -48 -7 -46 -8 5 -23 -63 -19 -90 2 -11 0 -39
-4 -64 -5 -32 -9 -41 -16 -31 -6 10 -9 5 -9 -18 0 -18 4 -33 9 -33 5 0 12 -10
15 -22 7 -22 7 -22 15 -3 6 14 8 8 7 -23 -1 -36 4 -46 29 -67 17 -13 38 -24
48 -25 19 0 24 -20 5 -20 -23 0 15 -20 38 -20 12 0 27 -7 34 -15 7 -8 24 -15
37 -15 29 0 26 -24 -3 -26 -10 -1 -25 -2 -31 -3 -14 -1 -18 -31 -4 -31 5 0 25
7 44 15 20 8 59 15 87 15 44 0 50 3 50 20 0 19 6 21 69 19 76 -2 98 5 81 26
-8 9 -6 14 6 19 23 9 31 7 14 -4 -10 -7 -11 -10 -2 -10 7 0 20 9 29 20 13 14
20 17 30 8 10 -8 13 -7 13 3 1 10 4 9 14 -3 12 -16 14 -16 24 7 13 27 27 32
35 13 3 -7 6 4 6 25 1 34 3 37 20 27 11 -5 40 -10 64 -10 42 0 46 -2 57 -33 7
-17 14 -71 17 -120 5 -83 4 -87 -16 -87 -18 0 -21 -6 -21 -40 0 -33 3 -40 20
-40 17 0 20 -7 20 -40 0 -33 -3 -40 -20 -40 -11 0 -20 -4 -20 -10 0 -5 5 -10
10 -10 6 0 10 -24 10 -52 1 -48 16 -88 34 -88 4 0 15 -7 23 -16 9 -8 24 -13
34 -11 11 3 19 1 19 -4 0 -5 15 -9 34 -9 40 0 56 -15 25 -23 -12 -3 -18 -10
-14 -17 3 -5 -15 -33 -42 -60 -55 -56 -85 -129 -63 -155 7 -8 9 -15 5 -15 -4
0 7 -17 24 -38 18 -20 36 -43 42 -50 5 -6 22 -12 37 -13 15 -1 44 -2 65 -3 20
-2 37 2 37 8 0 6 5 5 12 -2 19 -19 78 -15 97 6 9 11 32 24 52 31 50 16 109 47
103 54 -3 3 8 8 24 12 18 4 56 33 97 74 42 43 82 73 105 81 37 12 90 50 90 65
0 4 18 25 39 47 22 21 45 55 51 74 8 22 20 36 35 40 14 3 25 15 27 27 3 20 8
22 56 19 l52 -2 2 37 c1 21 1 61 0 88 -2 118 -1 146 8 170 15 39 34 31 29 -12
-1 -15 38 -21 99 -16 53 5 62 3 62 -11 0 -12 -10 -16 -40 -16 -22 0 -40 -4
-40 -10 0 -6 47 -10 120 -10 73 0 120 -4 120 -10 0 -5 23 -10 51 -10 34 0 48
-4 43 -11 -12 -20 15 -26 122 -28 l104 -2 0 81 c0 47 -4 80 -10 80 -5 0 -10 5
-10 10 0 6 37 10 90 10 53 0 90 4 90 10 0 6 42 10 105 10 l105 0 0 28 c1 38
18 56 68 70 l42 13 0 104 0 105 -40 0 c-22 0 -40 5 -40 11 0 14 -55 69 -69 69
-6 0 -11 18 -11 40 l0 40 -80 0 -80 0 0 40 c0 29 4 40 15 40 8 0 15 5 15 10 0
6 -7 10 -15 10 -8 0 -15 -4 -15 -10 0 -6 -33 -10 -80 -10 -66 0 -80 -3 -80
-15 0 -13 -10 -16 -47 -14 -62 2 -133 -17 -133 -36 0 -12 -15 -15 -70 -15
l-70 0 0 160 0 160 30 0 c28 0 30 3 30 36 0 50 18 63 92 66 62 3 63 4 63 31
-1 25 2 27 42 27 l43 0 0 80 c0 47 4 80 10 80 6 0 10 33 10 80 l0 80 -50 0
-50 0 0 80 c0 47 -4 80 -10 80 -6 0 -10 33 -10 80 0 73 -2 80 -20 80 -18 0
-20 7 -20 80 0 73 2 80 20 80 11 0 20 6 20 13 0 6 14 26 30 44 28 30 30 37 30
106 0 71 -1 75 -25 81 -14 4 -25 11 -25 16 0 6 -4 10 -10 10 -5 0 -10 -18 -10
-39 0 -47 -8 -71 -24 -71 -7 0 -10 -26 -9 -80 l1 -80 -29 0 c-16 0 -29 -5 -29
-11 0 -11 -24 -39 -34 -39 -3 0 -6 7 -6 15 0 8 5 15 10 15 6 0 10 6 10 14 0 8
12 23 27 34 16 11 24 24 20 29 -5 4 -14 0 -21 -10 -7 -9 -18 -17 -23 -17 -5 0
-15 -11 -23 -24 -7 -14 -23 -27 -36 -30 -30 -8 -31 -24 -1 -36 l22 -9 -22 -7
c-19 -5 -23 -14 -23 -45 0 -39 0 -39 -40 -39 -36 0 -40 3 -40 25 0 28 -16 31
-45 9 -17 -13 -18 -16 -5 -25 12 -9 12 -10 -4 -5 -12 4 -26 -2 -42 -19 -21
-23 -28 -24 -83 -18 -43 4 -61 2 -61 -6 0 -6 16 -11 38 -11 21 0 47 -7 58 -15
18 -13 17 -14 -18 -15 -31 0 -38 -4 -38 -20 0 -13 -7 -20 -20 -20 -13 0 -20
-7 -20 -20 0 -13 -7 -20 -20 -20 -17 0 -20 7 -20 40 l0 40 -60 0 -60 0 0 -73
0 -74 -122 -6 c-66 -4 -138 -7 -160 -7 -38 0 -38 0 -38 40 l0 40 -40 0 c-22 0
-40 5 -40 11 0 14 -55 69 -69 69 -6 0 -11 18 -11 40 0 36 -3 40 -24 40 -13 0
-26 7 -30 15 -4 10 -14 13 -34 9 -29 -6 -29 -6 -30 45 -2 52 12 76 23 41 7
-22 20 -26 31 -9 3 6 0 16 -7 21 -11 7 -11 11 -1 15 19 8 14 23 -8 23 -11 0
-20 7 -20 15 0 8 -5 15 -10 15 -6 0 -13 -7 -16 -15 -4 -8 -13 -15 -21 -15 -13
0 -13 3 -3 15 10 12 10 15 -1 15 -11 0 -11 2 -2 8 7 4 10 17 6 30 -3 12 -9 20
-13 17 -5 -3 -6 3 -3 14 4 14 -6 24 -44 42 -44 22 -48 27 -51 64 -3 29 -11 47
-32 65 -27 23 -30 31 -31 93 -2 67 -11 81 -37 55 -22 -22 -7 60 16 85 23 25
29 66 12 83 -7 7 -7 19 -2 35 10 25 0 52 -28 77 -11 10 -12 15 -2 18 17 8 15
73 -3 108 -21 40 -20 59 5 51 18 -6 20 -2 20 39 0 25 5 46 10 46 6 0 10 47 10
120 l0 120 -33 0 c-19 0 -37 -3 -40 -7z m-327 -408 c0 -9 -6 -12 -15 -9 -8 4
-15 10 -15 15 0 5 7 9 15 9 8 0 15 -7 15 -15z m353 -22 c-8 -52 -13 -54 -13
-5 0 23 4 42 9 42 6 0 7 -17 4 -37z m7 -174 c0 -4 -7 -6 -15 -3 -8 4 -15 10
-15 15 0 4 7 6 15 3 8 -4 15 -10 15 -15z m55 -329 c3 -5 1 -10 -4 -10 -6 0
-11 5 -11 10 0 6 2 10 4 10 3 0 8 -4 11 -10z m25 -30 c0 -5 -2 -10 -4 -10 -3
0 -8 5 -11 10 -3 6 -1 10 4 10 6 0 11 -4 11 -10z m1456 -124 c-4 -18 -13 -26
-29 -26 -16 0 -18 3 -8 9 7 5 11 13 7 19 -3 6 -1 14 5 18 8 4 9 3 5 -4 -4 -7
-2 -12 5 -12 7 0 9 8 6 21 -4 16 -3 19 5 11 6 -6 8 -22 4 -36z m-56 -306 l0
-40 -40 0 -40 0 0 40 0 40 40 0 40 0 0 -40z m-320 -10 c0 -5 -4 -10 -10 -10
-5 0 -10 5 -10 10 0 6 5 10 10 10 6 0 10 -4 10 -10z m77 -142 c-3 -8 -6 -5 -6
6 -1 11 2 17 5 13 3 -3 4 -12 1 -19z m323 -223 c0 -8 -4 -15 -10 -15 -5 0 -10
7 -10 15 0 8 5 15 10 15 6 0 10 -7 10 -15z m-874 -699 c8 -8 14 -31 14 -50 l0
-36 70 0 70 0 0 -40 c0 -22 -4 -40 -10 -40 -5 0 -10 -18 -10 -40 0 -37 -2 -40
-26 -40 -15 0 -32 -8 -39 -17 -10 -13 -30 -17 -95 -18 -68 -1 -85 -5 -96 -20
-11 -14 -11 -21 -2 -26 18 -11 -9 -39 -39 -39 -20 0 -23 4 -18 20 3 11 2 20
-3 20 -5 0 -12 -12 -15 -27 -11 -50 -21 -58 -56 -43 -46 19 -79 70 -46 70 9 0
23 16 32 35 9 19 20 32 24 29 4 -2 10 0 14 6 3 5 1 10 -4 10 -6 0 -11 5 -11
10 0 6 18 10 40 10 38 0 40 2 40 30 0 25 -4 30 -25 30 -24 0 -26 2 -19 38 4
20 8 39 10 41 2 2 24 4 49 3 45 0 45 0 45 34 0 19 6 41 13 49 16 19 74 19 93
1z m1299 -416 c-3 -5 -10 -10 -16 -10 -5 0 -9 5 -9 10 0 6 7 10 16 10 8 0 12
-4 9 -10z m-382 -147 c-7 -2 -21 -2 -30 0 -10 3 -4 5 12 5 17 0 24 -2 18 -5z
m-1266 -169 c-3 -3 -12 -4 -19 -1 -8 3 -5 6 6 6 11 1 17 -2 13 -5z m-190 -80
c-3 -3 -12 -4 -19 -1 -8 3 -5 6 6 6 11 1 17 -2 13 -5z m-7 -63 c0 -6 -4 -13
-10 -16 -5 -3 -10 1 -10 9 0 9 5 16 10 16 6 0 10 -4 10 -9z m30 -31 c-6 -11
-15 -18 -20 -15 -13 8 0 35 16 35 12 0 12 -4 4 -20z m-84 -57 c-10 -10 -19 5
-10 18 6 11 8 11 12 0 2 -7 1 -15 -2 -18z m-63 -10 c-7 -2 -21 -2 -30 0 -10 3
-4 5 12 5 17 0 24 -2 18 -5z"/>
<path d="M2220 2351 c0 -6 5 -13 10 -16 6 -3 10 1 10 9 0 9 -4 16 -10 16 -5 0
-10 -4 -10 -9z"/>
<path d="M5505 4810 c-22 -4 -50 -10 -62 -15 -25 -8 -31 -30 -10 -38 6 -3 3
-6 -9 -6 -11 -1 -29 -10 -39 -21 -10 -11 -21 -18 -25 -15 -10 6 -70 -33 -76
-50 -7 -18 -104 -22 -104 -4 0 5 5 7 10 4 6 -3 10 -1 10 4 0 6 -6 11 -13 11
-7 0 -17 10 -22 23 -6 13 -18 22 -31 21 -16 0 -20 4 -16 19 3 13 1 18 -6 14
-5 -4 -9 -15 -7 -25 2 -9 4 -26 4 -37 1 -11 12 -32 26 -47 14 -15 25 -36 25
-46 0 -10 9 -27 21 -38 11 -10 27 -33 34 -51 8 -18 21 -33 29 -33 9 0 16 -8
16 -18 0 -10 12 -29 26 -43 51 -47 66 -116 39 -170 -11 -21 -15 -53 -13 -112
3 -75 5 -82 25 -85 22 -3 22 -3 39 -159 5 -48 3 -55 -30 -99 -20 -26 -36 -54
-36 -64 0 -9 -11 -27 -24 -40 -14 -12 -28 -36 -32 -53 -3 -17 -22 -47 -41 -66
-19 -20 -39 -46 -44 -58 -5 -15 -17 -23 -32 -23 -30 0 -66 -26 -77 -56 -6 -16
-17 -24 -33 -24 -28 0 -67 -31 -67 -52 0 -28 -24 -36 -122 -43 -54 -4 -98 -11
-98 -15 0 -4 -21 -10 -47 -12 -38 -3 -51 0 -61 14 -15 20 -52 24 -70 6 -9 -9
-17 -9 -34 0 -13 6 -47 10 -76 8 -33 -2 -56 2 -62 10 -6 6 -25 12 -43 13 -18
0 -41 1 -52 2 -32 1 -98 29 -122 51 -15 14 -29 19 -47 14 -26 -6 -60 19 -71
55 -3 9 -20 22 -38 29 -74 28 -77 29 -77 54 0 29 -19 76 -31 76 -5 0 -20 22
-34 50 -18 36 -25 65 -25 109 0 33 -5 63 -10 66 -6 4 -17 22 -25 41 -9 23 -21
34 -34 34 -18 0 -21 -6 -21 -40 0 -33 -3 -40 -20 -40 -11 0 -20 -7 -20 -15 0
-9 -8 -30 -17 -48 -23 -42 -43 -98 -43 -119 0 -12 -8 -18 -25 -18 -25 0 -25
-1 -25 -79 0 -50 -4 -81 -11 -83 -8 -3 -9 -48 -4 -161 l7 -157 39 0 c39 0 39
0 39 -40 0 -33 -3 -40 -20 -40 -17 0 -20 -7 -20 -40 0 -33 3 -40 20 -40 19 0
20 -7 20 -160 0 -100 -4 -160 -10 -160 -6 0 -10 -33 -10 -80 0 -47 4 -80 10
-80 6 0 10 -33 10 -80 l0 -80 80 0 80 0 0 -80 0 -80 40 0 40 0 0 -80 0 -80
-40 0 c-38 0 -40 -2 -40 -30 l0 -30 80 0 c47 0 80 -4 80 -10 0 -5 -5 -10 -12
-10 -9 0 -9 -3 0 -12 7 -7 12 -34 12 -60 l0 -48 80 0 80 0 0 -35 c0 -29 4 -35
21 -35 12 0 19 -5 16 -12 -2 -7 -13 -13 -25 -13 -11 0 -29 -8 -39 -18 -11 -9
-28 -18 -39 -21 -48 -10 -65 -20 -70 -42 -4 -15 -14 -24 -25 -24 -10 0 -23 -8
-28 -18 -5 -10 -32 -24 -60 -31 -28 -7 -52 -16 -52 -19 -1 -4 -3 -16 -4 -27
-6 -45 -28 -79 -81 -128 -49 -44 -55 -54 -50 -79 5 -24 1 -30 -18 -38 -16 -6
-26 -18 -28 -36 -2 -18 -13 -33 -33 -44 -26 -14 -30 -23 -30 -57 0 -34 -6 -47
-42 -82 -24 -22 -51 -60 -62 -83 -54 -124 -54 -124 -41 -163 10 -31 16 -36 38
-33 15 1 64 -1 109 -6 52 -5 93 -4 115 3 18 6 45 13 59 16 15 2 43 21 62 40
19 19 45 35 56 35 12 0 24 6 27 13 3 8 20 20 39 27 19 8 35 17 35 22 0 4 9 8
20 8 11 0 19 3 19 8 -4 26 3 33 32 30 27 -3 33 1 43 29 6 18 26 48 44 67 17
20 32 44 32 55 0 11 8 26 19 33 10 7 21 23 25 36 4 12 15 22 25 22 18 0 51 48
51 75 0 11 6 15 19 10 14 -4 20 0 25 17 3 13 1 25 -4 26 -39 13 24 84 89 102
36 10 50 18 49 29 -2 12 4 15 22 13 30 -3 71 -23 66 -31 -2 -3 25 -6 61 -7 42
0 68 -5 73 -14 6 -10 14 -9 40 4 41 20 40 20 40 -4 0 -19 7 -20 113 -21 61 -1
133 -1 160 1 45 2 47 1 47 -25 0 -21 4 -26 16 -21 9 3 31 6 50 6 l34 0 -6 40
-7 40 37 0 c29 0 36 4 36 20 0 12 7 20 18 20 35 0 62 -13 62 -29 0 -14 7 -17
30 -13 17 2 30 10 30 17 0 7 4 15 8 17 4 2 21 20 36 41 21 27 36 37 56 37 31
0 44 13 54 52 3 16 11 28 16 28 6 0 10 11 10 24 0 13 4 26 9 28 4 2 5 12 0 23
-7 19 -8 19 -8 -2 -2 -40 -19 -24 -22 20 -4 42 -4 43 26 39 17 -3 33 -10 37
-16 5 -8 8 -7 8 2 0 6 7 12 15 12 11 0 15 11 15 40 0 22 -4 40 -10 40 -21 0
-9 31 15 40 14 5 29 20 34 32 5 13 15 39 22 58 13 33 13 33 19 10 l6 -25 24
33 c15 20 32 32 47 32 36 0 89 59 98 108 3 22 13 43 21 46 8 3 14 15 14 26 0
11 4 20 9 20 5 0 20 23 34 50 24 47 24 50 6 50 -16 0 -19 7 -19 40 l0 40 48 0
c39 0 49 4 57 23 6 12 20 23 33 25 12 2 22 8 22 13 0 6 4 8 9 5 5 -3 7 -16 3
-28 -3 -12 -1 -19 5 -15 5 3 10 37 11 74 1 37 4 86 7 108 5 29 3 36 -4 25 -6
-8 -11 -28 -12 -45 -1 -29 -1 -30 -9 -5 -12 39 -11 98 2 102 21 7 0 38 -27 38
-23 0 -25 4 -25 40 0 33 -3 40 -20 40 -18 0 -20 7 -20 75 0 53 4 75 13 76 6 0
2 4 -10 9 -23 10 -29 34 -16 67 6 14 9 11 15 -17 6 -34 7 -33 5 8 -2 34 1 42
15 42 11 0 18 7 17 18 0 10 -3 12 -6 5 -2 -7 -12 -13 -21 -13 -14 0 -14 2 -3
9 11 7 11 9 0 14 -8 3 -5 6 8 6 16 1 20 6 16 21 -7 28 -23 36 -18 9 3 -15 0
-19 -11 -15 -9 3 -23 6 -31 6 -13 0 -15 9 -10 53 3 29 3 65 0 79 -5 24 -10 27
-40 26 -27 -1 -37 -7 -44 -27 -6 -14 -8 -35 -5 -47 8 -32 -4 -84 -20 -84 -11
0 -14 -19 -14 -80 l0 -80 40 0 40 0 0 -119 c0 -96 -3 -120 -15 -125 -8 -3 -15
-14 -15 -24 0 -11 -7 -25 -15 -32 -8 -7 -15 -21 -15 -31 0 -10 -4 -21 -10 -24
-5 -3 -10 3 -10 14 0 12 -4 21 -10 21 -6 0 -10 -33 -10 -80 l0 -80 -30 0 c-20
0 -30 -5 -30 -15 0 -11 -11 -15 -40 -15 -30 0 -40 -4 -40 -16 0 -15 -16 -16
-160 -9 -144 7 -160 6 -160 -9 0 -12 -10 -16 -40 -16 -33 0 -40 -3 -40 -20 0
-17 -7 -20 -40 -20 -22 0 -40 -5 -40 -10 0 -7 -26 -9 -67 -8 -76 3 -70 -5 -72
96 -1 23 -5 42 -11 42 -5 0 -11 -19 -11 -42 -1 -24 -3 -35 -6 -24 -3 10 -2 38
2 62 5 35 10 44 26 44 10 0 19 -4 19 -10 0 -5 9 -10 20 -10 11 0 20 -4 20 -10
0 -5 8 -10 19 -10 10 0 21 -9 24 -20 3 -11 12 -20 21 -20 19 0 22 60 5 92 -8
16 -8 31 2 61 10 32 11 41 1 45 -7 2 -12 17 -12 33 0 22 -5 29 -20 29 -11 0
-20 5 -20 10 0 6 14 10 30 10 24 0 36 8 58 40 19 28 34 39 52 40 21 0 26 5 25
28 0 23 4 27 28 27 21 -1 27 3 24 15 -3 13 1 16 19 12 l24 -4 0 120 0 120 30
4 c16 3 35 0 41 -6 9 -8 10 -7 4 3 -6 11 -4 13 10 7 11 -4 22 -1 27 6 7 10 11
10 14 1 3 -7 12 -9 21 -6 11 4 14 2 9 -5 -5 -8 2 -12 21 -11 20 0 23 2 11 7
-11 5 -14 12 -9 21 7 10 10 10 16 1 6 -9 10 -9 16 1 8 11 11 11 20 -4 7 -12
17 -16 30 -12 11 4 19 2 19 -4 0 -7 12 -9 31 -6 31 6 78 49 79 73 0 6 4 12 10
12 5 0 7 7 4 15 -4 8 -1 15 5 15 21 0 11 27 -25 65 -21 23 -33 44 -29 53 5 12
3 13 -10 2 -17 -14 -76 -20 -68 -7 2 4 0 7 -6 7 -5 0 -18 3 -28 6 -14 4 -15 4
-4 -4 7 -5 10 -15 7 -21 -4 -6 -2 -11 3 -11 6 0 11 -4 11 -10 0 -5 -6 -7 -14
-4 -7 3 -20 -2 -29 -10 -9 -9 -17 -16 -19 -16 -2 0 -3 22 -3 49 0 52 -20 101
-42 101 -17 0 -17 -17 0 -23 8 -4 9 -6 0 -6 -6 -1 -19 6 -27 15 -9 8 -32 16
-51 17 -50 3 -46 27 5 27 l40 0 0 149 0 150 -27 3 c-20 2 -29 9 -31 26 -4 27
23 40 49 24 10 -7 35 -12 54 -12 l35 0 0 126 c0 117 2 128 23 150 12 13 30 24
40 24 15 0 17 -12 17 -121 0 -118 0 -120 22 -117 28 4 36 31 37 136 1 47 5 82
11 82 6 0 10 6 10 13 0 7 10 18 21 25 14 9 18 17 11 24 -11 11 -4 48 9 48 5 0
6 -7 3 -15 -4 -8 -1 -15 5 -15 13 0 15 52 2 66 -14 15 -25 78 -12 70 23 -15
-4 30 -37 60 -32 29 -34 35 -31 83 2 28 0 51 -5 51 -4 0 -5 7 -2 16 4 11 -1
22 -13 30 -10 8 -22 29 -25 49 -4 19 -12 35 -18 35 -5 0 -7 7 -4 16 5 12 1 14
-17 9 -17 -5 -18 -4 -7 4 8 5 11 13 7 17 -4 4 -15 0 -25 -9 -21 -19 -42 -22
-42 -6 0 6 7 9 15 5 8 -3 15 -1 15 3 0 5 -7 12 -16 15 -13 5 -14 9 -4 21 6 8
9 19 5 26 -5 8 -1 8 15 -1 18 -10 21 -9 18 2 -5 15 -23 17 -53 8 -14 -5 -23
-1 -30 13 -5 11 -17 22 -25 23 -8 2 -24 5 -35 7 -11 3 -38 1 -60 -3z m-345
-140 c0 -5 -2 -10 -4 -10 -3 0 -8 5 -11 10 -3 6 -1 10 4 10 6 0 11 -4 11 -10z
m705 -320 c-3 -5 -11 -10 -16 -10 -6 0 -7 5 -4 10 3 6 11 10 16 10 6 0 7 -4 4
-10z m-2069 -507 c-10 -10 -19 5 -10 18 6 11 8 11 12 0 2 -7 1 -15 -2 -18z
m1599 -237 c23 -16 14 -46 -15 -46 -16 0 -20 7 -20 30 0 33 7 37 35 16z m-35
-166 c0 -33 -3 -40 -20 -40 -17 0 -20 7 -20 40 0 33 3 40 20 40 17 0 20 -7 20
-40z m80 0 c0 -33 -3 -40 -20 -40 -17 0 -20 7 -20 40 0 33 3 40 20 40 17 0 20
-7 20 -40z m140 0 c0 -5 -4 -10 -9 -10 -6 0 -13 5 -16 10 -3 6 1 10 9 10 9 0
16 -4 16 -10z m-88 -99 c7 10 8 7 3 -11 -4 -14 -7 -40 -8 -57 -2 -48 -17 -40
-19 10 l-1 42 -4 -42 c-2 -24 -8 -43 -13 -43 -11 0 -16 51 -11 108 l3 44 20
-33 c16 -26 22 -30 30 -18z m238 -33 c0 -19 -2 -20 -10 -8 -8 12 -10 11 -10
-7 0 -13 -6 -23 -12 -23 -9 0 -8 -3 2 -10 15 -10 8 -23 -15 -26 -7 -1 -12 3
-9 10 3 7 1 23 -4 36 -7 20 -5 27 12 36 33 19 46 16 46 -8z m-13 -100 c-3 -8
-6 -5 -6 6 -1 11 2 17 5 13 3 -3 4 -12 1 -19z m23 -28 c0 -5 -4 -10 -10 -10
-5 0 -10 5 -10 10 0 6 5 10 10 10 6 0 10 -4 10 -10z m-463 -372 c-3 -7 -5 -2
-5 12 0 14 2 19 5 13 2 -7 2 -19 0 -25z m-130 -204 c-3 -3 -12 -4 -19 -1 -8 3
-5 6 6 6 11 1 17 -2 13 -5z m1029 -82 c-13 -12 -17 8 -10 40 l9 33 3 -33 c2
-19 1 -36 -2 -40z m-336 -147 c0 -8 -4 -15 -10 -15 -5 0 -10 7 -10 15 0 8 5
15 10 15 6 0 10 -7 10 -15z m-1193 -117 c-3 -8 -6 -5 -6 6 -1 11 2 17 5 13 3
-3 4 -12 1 -19z m53 6 c0 -8 -4 -12 -10 -9 -5 3 -10 10 -10 16 0 5 5 9 10 9 6
0 10 -7 10 -16z m-313 -162 c14 -9 12 -62 -3 -62 -6 0 -16 -12 -23 -26 -15
-33 -18 -30 -24 26 -6 59 14 85 50 62z m1293 -122 c0 -5 -2 -10 -4 -10 -3 0
-8 5 -11 10 -3 6 -1 10 4 10 6 0 11 -4 11 -10z m-36 -85 c4 -10 -1 -15 -14
-15 -13 0 -18 5 -14 15 4 8 10 15 14 15 4 0 10 -7 14 -15z m-384 -395 c0 -5
-4 -10 -10 -10 -5 0 -10 5 -10 10 0 6 5 10 10 10 6 0 10 -4 10 -10z m-220 -30
c0 -5 -7 -10 -15 -10 -8 0 -15 5 -15 10 0 6 7 10 15 10 8 0 15 -4 15 -10z"/>
<path d="M1696 4708 c-14 -16 -15 -22 -6 -28 21 -13 40 0 40 26 0 29 -9 29
-34 2z"/>
<path d="M1650 4640 c0 -11 6 -20 14 -20 7 0 16 9 19 20 4 15 0 20 -14 20 -12
0 -19 -7 -19 -20z"/>
<path d="M1700 4649 c0 -5 5 -7 10 -4 6 3 10 8 10 11 0 2 -4 4 -10 4 -5 0 -10
-5 -10 -11z"/>
<path d="M3150 4590 c0 -35 13 -89 21 -84 9 5 1 60 -12 84 -7 13 -8 13 -9 0z"/>
<path d="M1620 4569 c0 -5 5 -7 10 -4 6 3 10 8 10 11 0 2 -4 4 -10 4 -5 0 -10
-5 -10 -11z"/>
<path d="M1602 4500 c0 -14 2 -19 5 -12 2 6 2 18 0 25 -3 6 -5 1 -5 -13z"/>
<path d="M2653 4443 c-7 -2 -13 -11 -13 -19 0 -10 -13 -13 -51 -11 -55 2 -57
0 -79 -59 -8 -23 -20 -33 -41 -38 -24 -5 -29 -10 -24 -25 3 -11 0 -23 -7 -28
-53 -33 -48 -171 7 -207 13 -9 25 -26 27 -38 2 -17 11 -24 31 -26 15 -2 27
-10 27 -17 0 -20 67 -37 92 -24 11 6 31 7 46 3 51 -15 103 -13 125 4 46 37 77
78 77 101 0 13 10 39 21 58 18 29 20 38 10 57 -8 14 -10 44 -7 81 6 58 5 60
-32 96 -20 21 -43 45 -50 53 -7 9 -29 16 -50 16 -20 1 -48 7 -62 15 -27 16
-29 16 -47 8z"/>
<path d="M1040 4385 c0 -27 1 -28 24 -19 24 9 20 44 -4 44 -15 0 -20 -7 -20
-25z"/>
<path d="M4954 4296 c-4 -11 -17 -16 -38 -15 -57 3 -65 0 -72 -28 -11 -42 -36
-72 -61 -73 -21 0 -28 -10 -24 -34 1 -5 -10 -26 -25 -47 -23 -34 -25 -44 -19
-90 6 -40 15 -60 41 -87 18 -19 32 -37 30 -41 -2 -3 2 -15 10 -25 11 -16 16
-17 29 -6 13 11 17 8 26 -19 8 -23 17 -31 35 -31 13 0 24 -5 24 -10 0 -6 12 1
26 15 l26 26 22 -20 c36 -34 92 -22 150 31 32 30 47 51 43 61 -3 8 5 29 17 46
21 28 23 40 21 132 l-3 102 -40 31 c-22 17 -42 40 -44 51 -2 16 -13 21 -58 26
-30 3 -67 9 -82 13 -21 6 -29 4 -34 -8z"/>
<path d="M3161 4125 c-2 -43 -20 -105 -31 -105 -15 0 -12 -27 3 -33 9 -4 9 -7
0 -14 -9 -6 0 -9 24 -10 24 -1 31 2 22 7 -7 5 -10 12 -6 17 13 12 27 -19 27
-59 0 -21 5 -38 10 -38 6 0 10 16 10 35 0 19 5 35 10 35 6 0 10 18 10 40 0 22
-4 40 -10 40 -5 0 -10 11 -10 24 0 16 -7 27 -20 31 -11 4 -18 11 -15 16 4 5 2
9 -4 9 -5 0 -12 8 -14 18 -3 9 -5 4 -6 -13z"/>
<path d="M5860 4095 c0 -14 -4 -25 -10 -25 -6 0 -10 -26 -10 -57 1 -47 3 -54
12 -39 6 11 11 36 11 57 0 23 5 40 13 43 19 7 18 46 -1 46 -9 0 -15 -9 -15
-25z"/>
<path d="M3740 3979 c0 -5 5 -7 10 -4 6 3 10 8 10 11 0 2 -4 4 -10 4 -5 0 -10
-5 -10 -11z"/>
<path d="M3107 3927 c-3 -8 -1 -20 4 -28 6 -10 9 -7 9 14 0 29 -5 35 -13 14z"/>
<path d="M6000 3755 c0 -8 8 -15 18 -15 14 0 14 2 3 9 -11 7 -9 10 10 14 23 4
22 4 -3 6 -19 1 -28 -4 -28 -14z"/>
<path d="M5999 3718 c-1 -7 -1 -52 0 -100 2 -83 1 -88 -18 -88 -14 0 -21 -6
-21 -18 0 -10 -5 -23 -12 -30 -8 -8 -3 -19 22 -42 l33 -31 15 23 c9 13 22 27
29 31 17 10 17 93 1 101 -10 5 -10 7 0 12 6 3 12 20 11 37 -1 30 -1 31 -8 7
l-7 -25 -6 28 c-5 26 -3 28 19 24 l24 -4 -22 23 c-12 13 -19 24 -15 24 4 0 2
9 -4 20 -12 22 -39 27 -41 8z m20 -91 c0 -21 -1 -21 -9 -2 -12 28 -12 37 0 30
6 -3 10 -16 9 -28z"/>
<path d="M5760 3681 c0 -22 -5 -41 -12 -43 -9 -3 -9 -6 0 -12 7 -4 12 -2 12 3
0 6 18 11 40 11 l40 0 0 40 0 40 -40 0 c-40 0 -40 0 -40 -39z"/>
<path d="M1885 3579 c-12 -19 5 -23 22 -6 16 16 16 17 1 17 -9 0 -20 -5 -23
-11z"/>
<path d="M2840 3580 c0 -5 5 -10 10 -10 6 0 10 5 10 10 0 6 -4 10 -10 10 -5 0
-10 -4 -10 -10z"/>
<path d="M2013 3553 c9 -2 17 -11 17 -19 0 -8 9 -14 20 -14 11 0 20 3 20 6 0
13 -35 33 -55 33 -17 -1 -17 -2 -2 -6z"/>
<path d="M3280 3500 c0 -16 7 -20 33 -20 17 0 41 -2 52 -4 11 -2 14 -1 8 1 -7
3 -13 13 -13 24 0 16 -7 19 -40 19 -33 0 -40 -3 -40 -20z"/>
<path d="M2055 3499 c-10 -15 3 -25 16 -12 7 7 7 13 1 17 -6 3 -14 1 -17 -5z"/>
<path d="M3512 3460 c0 -14 2 -19 5 -12 2 6 2 18 0 25 -3 6 -5 1 -5 -13z"/>
<path d="M1210 3460 c0 -5 5 -10 10 -10 6 0 10 5 10 10 0 6 -4 10 -10 10 -5 0
-10 -4 -10 -10z"/>
<path d="M6033 3427 c4 -10 -1 -18 -14 -22 -23 -8 -25 -23 -4 -31 14 -6 13 -8
-2 -21 -17 -14 -17 -14 0 -9 10 3 29 6 42 6 18 0 24 7 27 31 4 25 2 30 -12 26
-11 -3 -17 1 -16 11 0 8 -5 17 -13 20 -10 3 -12 0 -8 -11z"/>
<path d="M3280 3380 c0 -17 7 -20 40 -20 33 0 40 -3 40 -20 0 -18 7 -20 80
-20 l80 0 0 30 0 30 -80 0 c-47 0 -80 4 -80 10 0 6 -18 10 -40 10 -33 0 -40
-3 -40 -20z"/>
<path d="M5690 3370 c0 -5 5 -10 10 -10 6 0 10 5 10 10 0 6 -4 10 -10 10 -5 0
-10 -4 -10 -10z"/>
<path d="M6073 3324 c-18 -19 -17 -84 1 -84 10 0 13 11 11 38 -1 20 0 26 2 12
3 -14 9 -30 14 -37 7 -7 6 -12 -2 -15 -8 -3 -9 -9 -4 -18 6 -10 10 -8 17 10 5
14 5 27 -2 34 -5 5 -10 19 -10 31 0 32 -13 45 -27 29z"/>
<path d="M633 3289 c1 -20 10 -22 40 -11 15 6 13 9 -12 19 -26 10 -29 9 -28
-8z"/>
<path d="M607 3257 c-3 -8 -2 -20 3 -26 5 -9 8 -4 8 13 0 29 -3 32 -11 13z"/>
<path d="M5915 3240 c-3 -5 -1 -10 4 -10 6 0 11 5 11 10 0 6 -2 10 -4 10 -3 0
-8 -4 -11 -10z"/>
<path d="M880 3215 c0 -11 11 -15 41 -15 36 0 39 2 25 15 -8 8 -26 15 -40 15
-16 0 -26 -6 -26 -15z"/>
<path d="M624 3212 c-6 -4 -13 -15 -17 -25 -8 -22 3 -78 14 -71 5 3 9 -1 9 -8
0 -10 3 -9 11 2 9 12 9 11 4 -5 -4 -11 -12 -49 -17 -85 -5 -36 -14 -68 -20
-71 -14 -9 9 -79 25 -76 8 1 11 -9 9 -28 -1 -16 2 -39 7 -50 5 -11 12 -28 15
-38 8 -25 27 -17 45 21 9 17 26 33 39 37 12 3 22 10 22 15 0 6 7 10 15 10 8 0
15 -5 15 -10 0 -7 6 -7 20 0 17 9 20 21 20 90 0 50 -4 80 -11 80 -6 0 -9 21
-8 53 2 28 -3 69 -11 90 l-14 37 -84 0 c-79 0 -83 1 -77 20 7 22 5 23 -11 12z"/>
<path d="M871 3144 c0 -11 3 -14 6 -6 3 7 2 16 -1 19 -3 4 -6 -2 -5 -13z"/>
<path d="M6101 3074 c0 -11 3 -14 6 -6 3 7 2 16 -1 19 -3 4 -6 -2 -5 -13z"/>
<path d="M6110 2950 c0 -5 5 -10 10 -10 6 0 10 5 10 10 0 6 -4 10 -10 10 -5 0
-10 -4 -10 -10z"/>
<path d="M3580 2935 c0 -8 5 -15 10 -15 6 0 10 7 10 15 0 8 -4 15 -10 15 -5 0
-10 -7 -10 -15z"/>
<path d="M595 2850 c-3 -5 -1 -10 4 -10 6 0 11 5 11 10 0 6 -2 10 -4 10 -3 0
-8 -4 -11 -10z"/>
<path d="M6185 2854 c-11 -4 -8 -81 4 -88 3 -2 6 18 6 45 0 27 0 49 0 48 0 0
-5 -3 -10 -5z"/>
<path d="M563 2803 c-15 -5 -17 -51 -4 -71 10 -16 43 -12 49 6 2 6 -3 12 -12
12 -9 0 -16 -6 -17 -12 0 -7 -5 -2 -10 11 -5 13 -7 26 -4 29 3 3 5 0 5 -6 0
-7 5 -12 10 -12 12 0 14 37 3 43 -5 2 -14 2 -20 0z"/>
<path d="M621 2794 c0 -11 3 -14 6 -6 3 7 2 16 -1 19 -3 4 -6 -2 -5 -13z"/>
<path d="M2977 2742 c-22 -24 -22 -58 0 -66 22 -9 63 31 63 61 0 29 -39 32
-63 5z"/>
<path d="M6200 2726 c0 -9 5 -16 10 -16 6 0 10 4 10 9 0 6 -4 13 -10 16 -5 3
-10 -1 -10 -9z"/>
<path d="M2962 2620 c0 -14 2 -19 5 -12 2 6 2 18 0 25 -3 6 -5 1 -5 -13z"/>
<path d="M592 1940 c0 -14 2 -19 5 -12 2 6 2 18 0 25 -3 6 -5 1 -5 -13z"/>
<path d="M1361 1894 c0 -11 3 -14 6 -6 3 7 2 16 -1 19 -3 4 -6 -2 -5 -13z"/>
<path d="M3905 1867 c-4 -10 -5 -21 -1 -24 10 -10 18 4 13 24 -4 17 -4 17 -12
0z"/>
<path d="M3300 1710 c-12 -7 -12 -12 -2 -22 9 -9 15 -9 24 0 16 16 -2 34 -22
22z"/>
<path d="M4525 1490 c3 -5 12 -7 20 -3 21 7 19 13 -6 13 -11 0 -18 -4 -14 -10z"/>
<path d="M4540 1466 c0 -2 7 -6 15 -10 8 -3 15 -1 15 4 0 6 -7 10 -15 10 -8 0
-15 -2 -15 -4z"/>
</g>
</svg>
